<?xml version="1.0" encoding="utf-8"?>
<!-- Generator: Adobe Illustrator 16.0.0, SVG Export Plug-In . SVG Version: 6.00 Build 0)  -->
<!DOCTYPE svg PUBLIC "-//W3C//DTD SVG 1.1//EN" "http://www.w3.org/Graphics/SVG/1.1/DTD/svg11.dtd">
<svg version="1.1" id="Capa_1" xmlns="http://www.w3.org/2000/svg" xmlns:xlink="http://www.w3.org/1999/xlink" x="0px" y="0px"
	 width="612px" height="792px" viewBox="0 0 612 792" enable-background="new 0 0 612 792" xml:space="preserve">
<g>
	<g>
		<path fill="#FFFFFF" d="M153.586,583.505c22.258,24.259,54.02,38.264,86.906,38.264h271.222
			c55.271,0,100.286-45.016,100.286-100.285V270.519c0-55.27-45.016-100.286-100.286-100.286H240.492
			c-33.012,0-64.648,13.88-86.906,38.264l-139.8,152.179c-18.381,20.132-18.381,50.393,0,70.526L153.586,583.505z M36.419,381.433
			l139.8-152.305c16.506-18.006,40.014-28.26,64.398-28.26h271.222c38.389,0,69.65,31.261,69.65,69.65v250.84
			c0,38.389-31.262,69.649-69.65,69.649H240.492c-24.384,0-47.892-10.254-64.398-28.26L36.419,410.443
			C28.792,402.19,28.792,389.686,36.419,381.433z"/>
		<path fill="#FFFFFF" d="M281.882,477.342c3.001,3.002,6.877,4.502,10.879,4.502s7.878-1.5,10.879-4.502l59.771-59.771
			l59.771,59.771c3.001,3.002,6.877,4.502,10.879,4.502c4.001,0,7.878-1.5,10.879-4.502c6.002-6.002,6.002-15.63,0-21.632
			l-59.896-59.772l59.771-59.771c6.002-6.002,6.002-15.631,0-21.633c-6.002-6.002-15.631-6.002-21.633,0l-59.771,59.771
			l-59.771-59.771c-6.002-6.002-15.63-6.002-21.632,0c-6.002,6.002-6.002,15.63,0,21.633l59.771,59.771l-59.771,59.772
			C276.005,461.712,276.005,471.339,281.882,477.342z"/>
	</g>
</g>
</svg>
